<svg class="icon" viewBox="0 0 1024 1024" xmlns="http://www.w3.org/2000/svg" width="200" height="200"><path d="M941.312 834.432c-37.376-26.24-106.112-87.04-106.112-129.024V500.736c0-157.184-96.32-290.432-228.416-334.4.384-2.048 1.216-3.968 1.216-6.144 0-49.536-39.424-104.704-96-104.704s-96 55.232-96 104.704c0 2.176.832 4.096 1.216 6.144C285.12 210.24 188.8 343.488 188.8 500.736v204.608c0 43.776-74.56 107.84-110.592 132.032A32 32 0 0 0 96 896h259.264A160.192 160.192 0 0 0 512 1024c77.312 0 141.888-55.04 156.8-128h260.48a32 32 0 0 0 12.032-61.568zM512 119.552c13.568 0 27.072 15.872 30.528 33.024-10.048-1.024-20.224-1.664-30.528-1.664s-20.48.64-30.528 1.664c3.456-17.152 16.96-33.024 30.528-33.024zM512 960a95.808 95.808 0 0 1-90.112-64h180.224c-13.248 37.184-48.448 64-90.112 64zM184.768 832c34.368-34.368 68.032-80 68.032-126.592V500.736c0-157.632 116.288-285.824 259.2-285.824 142.976 0 259.2 128.256 259.2 285.824v204.608c0 46.656 33.664 92.288 68.032 126.656H184.768z"/></svg>