<svg class="icon" viewBox="0 0 1024 1024" xmlns="http://www.w3.org/2000/svg" width="200" height="200"><path d="M981.43 316.293c2.756 6.494 4.816 13.323 7.313 19.945h-54.209C864.974 171.584 701.974 56.04 512 56.04c-253.224 0-458.506 205.282-458.506 458.506H2.547C2.547 233.176 230.63 5.095 512 5.095c181.746 0 340.795 95.444 430.974 238.653l15.712-89.08c2.447-13.855 15.666-23.1 29.522-20.656 13.83 2.446 23.104 15.639 20.657 29.497l-26.538 150.518c-.155.84-.666 1.477-.896 2.266zM715.78 590.964v50.945H537.47v152.836h-50.945V641.91H308.217v-50.945h178.308v-76.418H308.217v-50.945h158.236L350.579 325.514l39.025-32.758L511.591 438.13h.816l121.99-145.373 39.025 32.758-115.88 138.087H715.78v50.945H537.472v76.418h178.307zM42.563 712.8c-2.751-6.493-4.813-13.323-7.31-19.945H89.46c69.564 164.656 232.564 280.198 422.538 280.198 253.223 0 458.506-205.284 458.506-458.507h50.946c0 281.372-228.079 509.452-509.452 509.452-181.721 0-340.798-95.443-430.971-238.656L65.31 874.426c-2.444 13.85-15.663 23.1-29.522 20.657-13.83-2.448-23.101-15.642-20.657-29.503l26.543-150.517c.152-.836.661-1.473.89-2.264z"/></svg>