<svg width="140" height="120" viewBox="0 0 140 120" xmlns="http://www.w3.org/2000/svg"><defs><linearGradient x1="52.498%" y1="165.857%" x2="52.498%" y2="0%" id="a"><stop stop-color="#B5DAFF" offset="0%"/><stop stop-color="#D9ECFF" stop-opacity="0" offset="100%"/></linearGradient><filter x="-25%" y="-150%" width="150%" height="400%" filterUnits="objectBoundingBox" id="b"><feGaussianBlur stdDeviation="5" in="SourceGraphic"/></filter><linearGradient x1="50%" y1="0%" x2="50%" y2="100%" id="c"><stop stop-color="#007FDF" stop-opacity="0" offset="0%"/><stop stop-color="#007FDF" offset="100%"/></linearGradient></defs><g fill="none" fill-rule="evenodd"><path d="M69 67c38.108 0 69-8.716 69-17s-30.892-15-69-15C30.892 35 0 41.716 0 50c0 8.284 30.892 17 69 17z" fill="url(#a)" transform="translate(1 20)"/><path d="M69 83c16.569 0 30-2.724 30-5.313C99 75.1 85.569 73 69 73c-16.569 0-30 2.099-30 4.688C39 80.275 52.431 83 69 83z" fill="#DCEDFF" filter="url(#b)" transform="translate(1 20)"/><g transform="translate(1 42)"><path d="M69 32c38.108 0 69-8.716 69-17S107.108 0 69 0C30.892 0 0 6.716 0 15c0 8.284 30.892 17 69 17z" stroke="url(#c)" stroke-dasharray="1,5"/><circle fill="#007FDF" cx="41" cy="30" r="2"/></g><circle cx="5.5" cy="5.5" r="5.5" transform="translate(103 20)" fill="#89D7FF" opacity=".4"/><g transform="translate(39 4)"><path d="M1.5 50.7v-49h53v49h-53zm0-49v49h53v-49h-53z" stroke="#007FDF" stroke-width="3"/><path d="M9.5 20h23a1.5 1.5 0 0 1 0 3h-23a1.5 1.5 0 0 1 0-3z" fill="#007FDF"/><rect fill="#007FDF" x="8" y="28" width="22" height="3" rx="1.5"/><rect fill="#007FDF" x="8" y="36" width="17" height="3" rx="1.5"/><rect fill="#007FDF" x="8" y="12" width="17" height="3" rx="1.5"/><path d="M42.8 38.2h14.4v20.558a1.2 1.2 0 0 1-1.866.998l-4.668-3.112a1.2 1.2 0 0 0-1.332 0l-4.668 3.112a1.2 1.2 0 0 1-1.866-.998V38.2z" fill="#007FDF" fill-rule="nonzero"/><path d="M41.093 35.232l-2.646-4.924a1.2 1.2 0 0 1 1.02-1.767l5.588-.17a1.2 1.2 0 0 0 .983-.569l2.942-4.753a1.2 1.2 0 0 1 2.04 0l2.942 4.753a1.2 1.2 0 0 0 .983.568l5.587.17a1.2 1.2 0 0 1 1.02 1.768l-2.645 4.924a1.2 1.2 0 0 0 0 1.136l2.646 4.924a1.2 1.2 0 0 1-1.02 1.767l-5.588.17a1.2 1.2 0 0 0-.983.569L51.02 48.55a1.2 1.2 0 0 1-2.04 0l-2.942-4.753a1.2 1.2 0 0 0-.983-.568l-5.587-.17a1.2 1.2 0 0 1-1.02-1.768l2.645-4.924a1.2 1.2 0 0 0 0-1.136z" fill="#007FDF" fill-rule="nonzero"/><path d="M45.128 40.83a3.6 3.6 0 0 1 2.951 1.705L50 45.639l1.92-3.104a3.6 3.6 0 0 1 2.952-1.704l3.649-.112-1.728-3.215a3.6 3.6 0 0 1 0-3.408l1.728-3.215-3.649-.112a3.6 3.6 0 0 1-2.951-1.704L50 25.961l-1.92 3.104a3.6 3.6 0 0 1-2.952 1.704l-3.649.112 1.728 3.215a3.6 3.6 0 0 1 0 3.408l-1.728 3.215 3.649.112z" fill="#E0F3FF"/></g></g></svg>