<svg xmlns="http://www.w3.org/2000/svg" class="icon" viewBox="0 0 1024 1024" width="128" height="128" version="1.1" id="svg8"><defs id="defs4"><style id="style2"/></defs><path d="M951.942 0H74.228C33.832 0 1.085 38.286 1.085 85.514v684.114c0 47.229 32.747 85.515 73.143 85.515h365.714v85.513H257.085c-20.198 0-36.572 19.143-36.572 42.757 0 23.615 16.374 42.758 36.572 42.758h512c20.197 0 36.571-19.143 36.571-42.758 0-23.614-16.374-42.757-36.571-42.757H586.228v-85.513h365.714c40.395 0 73.143-38.286 73.143-85.515V85.514C1025.085 38.286 992.337 0 951.942 0zm0 726.87c0 23.614-16.374 42.757-36.572 42.757H110.8c-20.198 0-36.571-19.143-36.571-42.757V128.27c0-23.614 16.373-42.757 36.571-42.757h804.57c20.198 0 36.572 19.143 36.572 42.757z" id="path6" stroke-width="1.236"/></svg>