<svg xmlns="http://www.w3.org/2000/svg" class="icon" viewBox="0 0 1024 1024" width="128" height="128" version="1.1" id="svg8"><defs id="defs4"><style id="style2"/></defs><path d="M951.942 91.119H74.228c-40.396 0-73.143 32.296-73.143 72.135V740.34c0 39.84 32.747 72.136 73.143 72.136h365.714v72.135H257.085c-20.198 0-36.572 16.148-36.572 36.068 0 19.92 16.374 36.068 36.572 36.068h512c20.197 0 36.571-16.148 36.571-36.068 0-19.92-16.374-36.068-36.571-36.068H586.228v-72.135h365.714c40.395 0 73.143-32.296 73.143-72.136V163.254c0-39.839-32.748-72.135-73.143-72.135zm0 613.152c0 19.92-16.374 36.068-36.572 36.068H110.8c-20.198 0-36.571-16.148-36.571-36.068V199.322c0-19.92 16.373-36.068 36.571-36.068h804.57c20.198 0 36.572 16.148 36.572 36.068z" id="path6" stroke-width="1.135"/></svg>