<svg class="icon" viewBox="0 0 1024 1024" xmlns="http://www.w3.org/2000/svg" width="200" height="200"><path d="M249.856 389.12V210.944c0-45.056 36.864-81.92 81.92-81.92H788.48L952.32 296.96v337.92c0 12.288-8.192 20.48-20.48 20.48s-20.48-8.192-20.48-20.48V337.92h-102.4c-34.816 0-61.44-26.624-61.44-61.44V169.984H331.776c-22.528 0-40.96 18.432-40.96 40.96V389.12H747.52c22.528 0 40.96 18.432 40.96 40.96V716.8c0 22.528-18.432 40.96-40.96 40.96H290.816v61.44c0 22.528 18.432 40.96 40.96 40.96H870.4c22.528 0 40.96-18.432 40.96-40.96v-61.44c0-12.288 8.192-20.48 20.48-20.48s20.48 8.192 20.48 20.48v61.44c0 45.056-36.864 81.92-81.92 81.92H331.776c-45.056 0-81.92-36.864-81.92-81.92v-61.44H112.64c-22.528 0-40.96-18.432-40.96-40.96V430.08c0-22.528 18.432-40.96 40.96-40.96h137.216zM788.48 186.368v90.112c0 10.24 8.192 20.48 20.48 20.48h86.016L788.48 186.368zM315.392 536.576c-14.336-38.912-40.96-57.344-83.968-59.392-59.392 4.096-90.112 36.864-94.208 102.4 2.048 65.536 34.816 100.352 94.208 102.4 47.104 0 77.824-22.528 88.064-67.584l-36.864-12.288c-4.096 32.768-22.528 47.104-49.152 47.104-34.816-2.048-53.248-26.624-55.296-71.68 2.048-45.056 20.48-67.584 55.296-69.632 24.576 2.048 40.96 14.336 47.104 36.864l34.816-8.192zm26.624 79.872c10.24 45.056 38.912 65.536 90.112 65.536s75.776-20.48 77.824-59.392c0-24.576-14.336-40.96-40.96-53.248l-36.864-12.288c-28.672-6.144-43.008-16.384-40.96-28.672 2.048-16.384 14.336-22.528 34.816-24.576 24.576 0 38.912 10.24 43.008 32.768l36.864-8.192c-6.144-36.864-34.816-57.344-81.92-55.296-45.056 2.048-69.632 20.48-71.68 53.248-2.048 28.672 16.384 47.104 57.344 57.344 10.24 2.048 20.48 4.096 30.72 8.192 22.528 6.144 32.768 16.384 30.72 30.72-2.048 18.432-14.336 26.624-38.912 28.672-28.672 0-47.104-14.336-51.2-45.056l-38.912 10.24zm380.928-137.216h-40.96L632.832 624.64c-4.096 12.288-6.144 18.432-6.144 20.48 0-4.096-2.048-10.24-6.144-20.48l-51.2-147.456h-40.96l77.824 198.656h43.008l73.728-196.608z"/></svg>