<svg width="490" height="500" viewBox="0 0 490 500" xmlns="http://www.w3.org/2000/svg"><defs><linearGradient x1="54.774%" y1="0%" x2="54.774%" y2="70.139%" id="a"><stop stop-color="#429EFF" offset="0%"/><stop stop-color="#75B8FF" offset="100%"/></linearGradient><linearGradient x1="84.129%" y1="0%" x2="76.837%" y2="58.064%" id="b"><stop stop-color="#DFF1FF" stop-opacity=".2" offset="0%"/><stop stop-color="#FFF" stop-opacity="0" offset="100%"/></linearGradient><linearGradient x1="50%" y1="0%" x2="50%" y2="100%" id="c"><stop stop-color="#FFF" stop-opacity=".2" offset="0%"/><stop stop-color="#FFF" stop-opacity="0" offset="100%"/></linearGradient></defs><g fill="none" fill-rule="evenodd"><rect fill="url(#a)" width="490" height="500" rx="4"/><path d="M0 151.544c36.003 14.036 83.91 24.838 143.722 32.405 89.718 11.352 195.035-48.441 252.078-57.808 38.029-6.245 69.429-7.597 94.2-4.055V500H0V151.544z" fill="url(#b)"/><path d="M0 121.544c29.774-19.15 68.782-25.534 117.024-19.15 72.362 9.575 160.979 56.982 247.78 54.578 57.868-1.603 99.6-9.899 125.196-24.886V496a4 4 0 0 1-4 4H4a4 4 0 0 1-4-4V121.544z" fill="url(#c)"/><path d="M0 149.57c38.787-17.808 82.301-23.463 130.543-16.963 72.362 9.749 147.46 38.175 234.261 35.727 57.868-1.632 99.6-11.097 125.196-28.393V496a4 4 0 0 1-4 4H4a4 4 0 0 1-4-4V149.57z" fill="#FFF"/></g></svg>