<svg class="icon" viewBox="0 0 1024 1024" xmlns="http://www.w3.org/2000/svg" width="200" height="200"><path d="M694.857 243.984H329.143c-11.494 0-20.898-9.404-20.898-20.898s9.404-20.898 20.898-20.898h365.714c11.494 0 20.898 9.404 20.898 20.898s-9.404 20.898-20.898 20.898z"/><path d="M820.245 459.755h-616.49V177.633c0-45.976 37.616-83.592 83.592-83.592h449.306c45.976 0 83.592 37.616 83.592 83.592v282.122zM245.55 417.96h532.898V177.633c0-22.988-18.808-41.796-41.796-41.796H287.347c-22.988 0-41.796 18.808-41.796 41.796v240.326zm491.102 512H287.347c-45.976 0-83.592-37.616-83.592-83.592V731.43h616.49v114.938c0 45.976-37.616 83.592-83.592 83.592zM245.551 773.224v73.143c0 22.988 18.808 41.796 41.796 41.796h449.306c22.988 0 41.796-18.808 41.796-41.796v-73.143H245.551z"/><path d="M846.367 773.224H177.633c-45.976 0-83.592-37.616-83.592-83.591V501.55c0-45.975 37.616-83.592 83.592-83.592h668.734c45.976 0 83.592 37.617 83.592 83.592v188.082c0 45.975-37.616 83.591-83.592 83.591zM177.633 459.755c-22.988 0-41.796 18.808-41.796 41.796v188.082c0 22.987 18.808 41.796 41.796 41.796h668.734c22.988 0 41.796-18.809 41.796-41.796V501.55c0-22.988-18.808-41.796-41.796-41.796H177.633zm517.224-108.147H329.143c-11.494 0-20.898-9.404-20.898-20.898s9.404-20.898 20.898-20.898h365.714c11.494 0 20.898 9.404 20.898 20.898s-9.404 20.898-20.898 20.898z"/><path d="M203.755 665.078V525.584h100.833v16.196h-82.025v42.84h77.323v16.196h-77.323v47.543h85.682v16.196h-104.49z"/><path d="M307.722 667.69H203.755c-1.567 0-2.612-1.045-2.612-2.612V525.584c0-1.568 1.045-2.613 2.612-2.613h100.833c1.567 0 2.612 1.045 2.612 2.613v16.196c0 1.567-1.045 2.612-2.612 2.612h-79.412v37.616h74.71c1.567 0 2.612 1.045 2.612 2.612v16.196c0 1.568-1.045 2.613-2.612 2.613h-74.71v42.318h83.069c1.567 0 2.612 1.045 2.612 2.612v16.196c-.522 2.09-1.567 3.135-3.135 3.135zm-101.355-5.225h98.743v-10.971h-82.547c-1.567 0-2.612-1.045-2.612-2.612v-47.543c0-1.568 1.045-2.612 2.612-2.612h74.71v-10.972h-74.71c-1.567 0-2.612-1.045-2.612-2.612v-42.841c0-1.567 1.045-2.612 2.612-2.612h79.935v-10.972h-96.13v133.747zm112.85 2.613l53.812-72.62-47.543-66.874h21.943l25.077 35.526c5.225 7.314 8.882 13.061 10.972 17.241 3.134-5.224 6.791-10.449 10.971-15.673l28.212-37.094h19.853l-49.11 65.828 52.767 73.666h-22.987l-35.004-49.633c-2.09-2.612-4.18-5.747-6.27-9.404-3.134 5.224-5.224 8.359-6.792 10.449l-35.004 48.588h-20.898z"/><path d="M447.216 667.69H424.23c-1.045 0-1.568-.523-2.09-1.045l-35.004-49.633c-1.045-2.09-2.613-3.657-4.18-5.747-2.09 3.135-3.657 5.747-4.702 6.792l-35.004 48.588c-.522.522-1.045 1.045-2.09 1.045h-21.943c-1.045 0-2.09-.523-2.09-1.568s-.522-2.09 0-2.612l52.768-71.053-46.498-65.306c-.523-1.045-.523-2.09 0-2.612.522-1.045 1.567-1.568 2.09-1.568h21.943c1.044 0 1.567.523 2.09 1.045l25.077 35.527c3.657 5.224 6.792 9.926 9.404 13.584 2.612-4.18 5.747-8.36 8.882-12.54l28.212-37.093c.522-.523 1.045-1.045 2.09-1.045h19.853c1.045 0 2.09.522 2.09 1.567.522 1.045.522 2.09 0 2.613l-48.066 64.26 52.245 72.621c.523 1.045.523 2.09 0 2.612-.522 1.045-1.045 1.568-2.09 1.568zm-21.42-5.225h16.196l-49.633-69.485c-.522-1.045-.522-2.09 0-3.135l45.976-61.65H424.75l-27.69 36.05c-4.18 5.224-7.837 10.971-10.971 15.673-.523 1.045-1.045 1.568-2.09 1.045-1.045 0-1.567-.522-2.09-1.567-2.09-3.657-5.747-9.404-10.971-16.718l-24.555-34.482H330.71l44.408 62.694c.523 1.045.523 2.09 0 3.134l-50.677 68.441h15.673l33.96-47.543c1.044-2.09 3.657-5.224 6.791-10.449.523-.522 1.568-1.044 2.09-1.044 1.045 0 1.567.522 2.09 1.044l6.27 9.405 34.48 48.587zm136.882-45.975l18.285 4.702c-3.657 15.15-10.971 26.645-20.898 34.481S537.6 667.69 522.971 667.69c-15.15 0-27.167-3.135-36.571-9.404-9.404-6.27-16.718-15.151-21.42-26.645-4.702-11.494-7.315-24.033-7.315-37.617 0-14.628 2.613-27.167 8.36-38.138 5.746-10.972 13.583-18.808 23.51-24.555 10.449-5.747 21.42-8.36 33.959-8.36 14.106 0 25.6 3.658 35.004 10.45 9.404 7.314 16.196 17.24 19.853 29.779l-18.286 4.18c-3.134-9.927-7.836-17.764-14.106-21.943-6.27-4.702-14.106-6.792-22.988-6.792-10.449 0-19.853 2.612-26.644 7.837-7.315 5.224-12.017 12.016-15.151 20.898-3.135 8.881-4.18 17.763-4.18 26.644 0 12.017 1.567 21.943 5.224 30.825 3.658 8.882 8.882 15.673 16.196 19.853 7.315 4.18 15.151 6.792 23.51 6.792 10.45 0 19.331-3.135 26.123-8.882 7.314-5.747 12.016-14.628 14.629-26.122z"/><path d="M523.494 670.302c-15.674 0-28.212-3.135-38.139-9.404-9.926-6.27-17.24-15.674-22.465-27.69s-7.837-24.555-7.837-38.139c0-14.628 3.135-28.212 8.36-39.183 5.746-10.972 14.105-19.853 24.554-25.6 10.45-5.747 22.466-8.882 35.004-8.882 14.629 0 26.645 3.657 36.572 10.972 9.926 7.314 16.718 17.763 20.898 31.346v2.09c-.523.523-1.045 1.045-1.568 1.045l-18.285 4.18c-1.568.522-2.612-.523-3.135-1.568-3.135-9.404-7.314-16.718-13.061-20.898s-13.061-6.269-21.42-6.269c-9.927 0-18.809 2.612-25.078 7.314-6.792 4.702-11.494 11.494-14.106 19.33-2.612 8.36-4.18 17.242-4.18 26.123 0 11.494 1.568 21.42 5.225 30.302 3.134 8.36 8.359 14.629 15.15 18.286 6.793 4.18 14.107 6.27 22.466 6.27 9.404 0 17.763-2.613 24.555-8.36 6.792-5.747 11.494-14.106 13.584-25.077 0-.523.522-1.045 1.045-1.568.522-.522 1.567-.522 2.09-.522l18.285 4.702c.523 0 1.045.522 1.568 1.045.522.522.522 1.567.522 2.09-4.18 15.673-11.494 27.69-21.943 36.049-10.971 7.836-23.51 12.016-38.661 12.016zm0-144.196c-12.016 0-22.988 2.612-32.392 7.837-9.926 5.224-17.24 13.061-22.465 23.51s-7.837 22.988-7.837 36.571c0 13.062 2.612 25.078 7.314 36.572 4.702 10.971 11.494 19.853 20.376 25.6 8.881 5.747 20.898 8.882 35.004 8.882 13.584 0 25.6-3.658 35.004-11.494 8.882-7.315 15.673-17.241 19.33-30.825l-13.06-3.135c-2.613 10.972-7.837 19.331-14.63 25.6-7.836 6.27-17.24 9.405-27.689 9.405-8.882 0-17.24-2.09-25.078-6.792s-13.583-12.017-17.24-20.898c-3.658-8.882-5.225-19.853-5.225-31.87 0-9.404 1.567-18.808 4.702-27.69 3.135-9.403 8.36-16.718 16.196-21.942s17.24-8.36 28.212-8.36c9.927 0 18.286 2.613 24.555 7.315 6.27 4.702 10.972 11.494 14.107 20.898l13.06-3.135c-3.656-10.971-9.926-19.853-18.285-26.122-8.882-6.27-20.375-9.927-33.96-9.927zM604.473 665.078V525.584h100.833v16.196H622.76v42.84h77.323v16.196h-77.323v47.543h85.682v16.196H604.473z"/><path d="M708.44 667.69H604.474c-1.567 0-2.612-1.045-2.612-2.612V525.584c0-1.568 1.045-2.613 2.612-2.613h100.833c1.567 0 2.612 1.045 2.612 2.613v16.196c0 1.567-1.045 2.612-2.612 2.612h-79.935v37.616h74.71c1.568 0 2.613 1.045 2.613 2.612v16.196c0 1.568-1.045 2.613-2.612 2.613h-74.71v42.318h83.069c1.567 0 2.612 1.045 2.612 2.612v16.196c0 2.09-1.567 3.135-2.612 3.135zm-101.354-5.225h98.743v-10.971h-83.07c-1.567 0-2.612-1.045-2.612-2.612v-47.543c0-1.568 1.045-2.612 2.612-2.612h74.71v-10.972h-74.71c-1.567 0-2.612-1.045-2.612-2.612v-42.841c0-1.567 1.045-2.612 2.612-2.612h79.935v-10.972h-95.608v133.747zM732.996 665.078V525.584h18.286v122.775h68.963v16.196h-87.25z"/><path d="M820.245 667.69h-87.25c-1.566 0-2.611-1.045-2.611-2.612V525.584c0-1.568 1.045-2.613 2.612-2.613h18.286c1.567 0 2.612 1.045 2.612 2.613v120.163h66.35c1.568 0 2.613 1.045 2.613 2.612v16.196c0 2.09-1.567 3.135-2.612 3.135zm-84.637-5.225h82.025v-10.971h-65.829c-1.567 0-2.612-1.045-2.612-2.612V528.718H736.13v133.747z"/></svg>