<svg class="icon" viewBox="0 0 1024 1024" xmlns="http://www.w3.org/2000/svg" width="200" height="200"><path d="M929.185 284.444c20.935 0 37.926-16.99 37.926-37.925V94.815c0-20.935-16.99-37.926-37.926-37.926H94.815c-20.935 0-37.926 16.99-37.926 37.926v151.704c0 20.935 16.99 37.925 37.926 37.925h644.74v113.778H94.816c-20.935 0-37.926 16.991-37.926 37.926v151.704c0 20.935 16.99 37.926 37.926 37.926h644.74v113.778H94.816c-20.935 0-37.926 16.99-37.926 37.925v151.704c0 20.935 16.99 37.926 37.926 37.926h834.37c20.935 0 37.926-16.99 37.926-37.926V777.481c0-20.935-16.99-37.925-37.926-37.925h-75.852V625.778h75.852c20.935 0 37.926-16.991 37.926-37.926V436.148c0-20.935-16.99-37.926-37.926-37.926h-75.852V284.444h75.852zM265.481 568.89H151.704V455.11H265.48v113.78zm0 341.333H151.704V796.444H265.48v113.778zm0-682.666H151.704V113.778H265.48v113.778z"/></svg>