<svg class="icon" viewBox="0 0 1024 1024" xmlns="http://www.w3.org/2000/svg" width="200" height="200"><defs><style/></defs><path d="M480 824.96h83.008V920H480v-95.04z"/><path d="M805.888 940.032c0 14.016-11.328 25.344-25.344 25.344H255.232c-14.016 0-25.344-11.328-25.344-25.344 0-14.016 11.328-25.344 25.344-25.344h525.312c14.016 0 25.344 11.328 25.344 25.344zM228.352 313.408h37.312v275.584h-37.312V313.408zM352.256 556.48c-24.768-26.688-37.12-61.696-37.12-105.088 0-43.52 12.352-78.656 37.12-105.344s57.152-40.128 97.152-40.128c40.256 0 72.704 13.376 97.408 40.128s37.056 61.888 37.056 105.344c0 43.392-12.352 78.4-37.056 105.088s-57.152 40-97.408 40c-40 0-72.384-13.312-97.152-40zm166.72-23.872c17.664-20.608 26.368-47.68 26.368-81.216 0-33.6-8.768-60.8-26.432-81.472-17.6-20.672-40.768-31.04-69.504-31.04-28.608 0-51.776 10.368-69.376 31.04S353.6 417.792 353.6 451.392c0 33.472 8.832 60.544 26.432 81.216s40.768 30.912 69.376 30.912c28.736 0 51.904-10.304 69.568-30.912zm178.496-186.176h-93.184v-33.024h223.68v33.024h-93.184v242.624h-37.312V346.432z"/><path d="M933.888 84.288H92.928c-40.256 0-72.96 32.64-72.96 72.96v594.816c0 40.256 32.64 72.96 72.96 72.96h840.96c40.256 0 72.96-32.64 72.96-72.96v-594.88c0-40.256-32.704-72.896-72.96-72.896zm7.232 612.544c0 34.368-28.288 62.208-63.232 62.208h-728.96c-34.944 0-63.232-27.84-63.232-62.208l-1.408-483.968c0-34.368 28.288-62.208 63.232-62.208h729.024c34.944 0 63.232 27.84 63.232 62.208l1.344 483.968z"/></svg>