<svg class="icon" viewBox="0 0 1024 1024" xmlns="http://www.w3.org/2000/svg" width="200" height="200"><path d="M932.352 285.696c0-113.152-90.112-204.8-200.704-204.8s-200.704 91.648-200.704 204.8v204.8h200.704c111.104 0 200.704-91.648 200.704-204.8zm-380.416 161.28zM86.528 738.304c0 113.152 90.112 204.8 200.704 204.8s200.704-91.648 200.704-204.8v-204.8H287.232c-110.592 0-200.704 91.648-200.704 204.8zm200.704-247.808h200.704v-204.8c0-113.152-90.112-204.8-200.704-204.8-111.104 0-200.704 91.648-200.704 204.8s90.112 204.8 200.704 204.8zm444.416 43.008H530.944v204.8c0 113.152 90.112 204.8 200.704 204.8s200.704-91.648 200.704-204.8-89.6-204.8-200.704-204.8z"/></svg>