<svg class="icon" viewBox="0 0 1024 1024" xmlns="http://www.w3.org/2000/svg" width="200" height="200"><path d="M99.19999999999999 854.4a72 72 0 1 0 144 0 72 72 0 1 0-144 0zM441.6 854.4a72 72 0 1 0 144 0 72 72 0 1 0-144 0zM785.6 854.4a72 72 0 1 0 144 0 72 72 0 1 0-144 0zM289.6 822.4h107.2v64H289.6zm342.4 0h107.2v64H632zM155.2 153.6h713.6v432h-272l-17.6 17.6-65.6 65.6-60.8-65.6-17.6-17.6H156.8v-432M126.4 96c-16 0-28.8 12.8-28.8 28.8V616c0 16 12.8 28.8 28.8 28.8h283.2L512 753.6l108.8-108.8h278.4c16 0 28.8-12.8 28.8-28.8V124.8c0-16-12.8-28.8-28.8-28.8H126.4z"/><path d="M244.8 272h537.6v59.2H244.8zm-1.6 144h537.6v59.2H243.2z"/></svg>