<svg class="icon" viewBox="0 0 1024 1024" xmlns="http://www.w3.org/2000/svg" width="200" height="200"><path d="M665.088 814.592h-299.52v149.504H96.256V1024h838.656v-59.904H665.6V814.592zM940.544 5.632H90.112c-48.128 0-83.968 35.84-83.968 83.968v553.984c0 45.056 38.912 83.968 83.968 83.968h847.36c48.128 0 83.968-35.84 83.968-83.968V89.6c3.072-45.056-35.84-83.968-80.896-83.968zm27.136 637.952c0 14.848-11.776 27.136-27.136 27.136H90.112c-14.848 0-27.136-11.776-27.136-27.136V89.6c0-14.848 11.776-27.136 27.136-27.136h847.36c14.848 0 27.136 11.776 27.136 27.136v553.984h3.072z"/><path d="M695.296 455.168H275.968V335.36h59.904V155.648H156.16V335.36h59.904v179.712h479.232v59.904h179.712V395.264H695.296v59.904zM545.28 185.344h329.216v59.904H545.28v-59.904z"/></svg>