<svg xmlns="http://www.w3.org/2000/svg" class="icon" viewBox="0 0 1024 1024" version="1.1" width="128" height="128" id="svg8"><defs id="defs4"><style type="text/css" id="style2"/></defs><path d="M303.224 218.656q0-35.583-25.308-60.783-25.308-25.201-61.042-25.201t-61.043 25.2q-25.308 25.201-25.308 60.784 0 35.582 25.308 60.782 25.309 25.201 61.043 25.201 35.734 0 61.042-25.2 25.308-25.201 25.308-60.783zm719.742 386.889q0 35.582-24.969 60.444l-331.2 330.47q-26.29 24.862-61.382 24.862-35.734 0-60.703-24.863L62.417 515.536Q36.768 490.674 18.9 447.682 1.034 404.69 1.034 369.108V89.68q0-34.943 25.649-60.444Q52.33 3.734 87.385 3.696h280.621q35.734 0 78.91 17.791 43.175 17.791 68.786 43.33l482.295 479.569q24.969 26.178 24.969 61.121z" id="path6" stroke-width="1.178"/></svg>