<svg class="icon" viewBox="0 0 1024 1024" xmlns="http://www.w3.org/2000/svg" width="200" height="200"><path d="M249.856 389.12V210.944c0-45.056 36.864-81.92 81.92-81.92H788.48L952.32 296.96v337.92c0 12.288-8.192 20.48-20.48 20.48s-20.48-8.192-20.48-20.48V337.92h-102.4c-34.816 0-61.44-26.624-61.44-61.44V169.984H331.776c-22.528 0-40.96 18.432-40.96 40.96V389.12H747.52c22.528 0 40.96 18.432 40.96 40.96V716.8c0 22.528-18.432 40.96-40.96 40.96H290.816v61.44c0 22.528 18.432 40.96 40.96 40.96H870.4c22.528 0 40.96-18.432 40.96-40.96v-61.44c0-12.288 8.192-20.48 20.48-20.48s20.48 8.192 20.48 20.48v61.44c0 45.056-36.864 81.92-81.92 81.92H331.776c-45.056 0-81.92-36.864-81.92-81.92v-61.44H112.64c-22.528 0-40.96-18.432-40.96-40.96V430.08c0-22.528 18.432-40.96 40.96-40.96h137.216zM788.48 186.368v90.112c0 10.24 8.192 20.48 20.48 20.48h86.016L788.48 186.368zM321.536 509.952v-30.72H149.504v30.72h67.584v167.936H256V509.952h65.536zm131.072 69.632l67.584-100.352h-45.056c-22.528 36.864-34.816 59.392-36.864 63.488-2.048 2.048-4.096 6.144-6.144 10.24s-4.096 4.096-4.096 6.144c0-2.048-2.048-4.096-4.096-8.192s-4.096-6.144-4.096-6.144c-2.048-4.096-14.336-24.576-38.912-63.488h-45.056l67.584 98.304-75.776 100.352h45.056c28.672-43.008 45.056-65.536 45.056-67.584 4.096-6.144 6.144-10.24 8.192-14.336 2.048 4.096 4.096 8.192 8.192 12.288 2.048 2.048 16.384 24.576 45.056 67.584h47.104l-73.728-98.304zm253.952-69.632v-30.72H534.528v30.72h67.584v167.936h38.912V509.952h65.536z"/></svg>