<svg class="icon" viewBox="0 0 1024 1024" xmlns="http://www.w3.org/2000/svg" width="200" height="200"><path d="M912 84.8H112C51.2 84.8 0 136 0 200v622.4c0 64 49.6 115.2 112 115.2h800c60.8 0 112-51.2 112-115.2V201.6c0-64-49.6-116.8-112-116.8m52.8 737.6c0 30.4-24 54.4-52.8 54.4H112c-28.8 0-52.8-24-52.8-54.4V201.6c0-30.4 24-54.4 52.8-54.4h800c28.8 0 52.8 24 52.8 54.4v620.8zm-94.4-505.6h-328c-16 0-28.8 14.4-28.8 30.4 0 17.6 12.8 30.4 28.8 30.4h328c16 0 28.8-14.4 28.8-30.4 1.6-17.6-11.2-30.4-28.8-30.4m0 155.2h-328c-16 0-28.8 14.4-28.8 30.4 0 17.6 12.8 30.4 28.8 30.4h328c16 0 28.8-14.4 28.8-30.4 1.6-17.6-11.2-30.4-28.8-30.4m0 155.2H593.6c-16 0-28.8 14.4-28.8 30.4 0 17.6 12.8 30.4 28.8 30.4h276.8c16 0 28.8-14.4 28.8-30.4 1.6-17.6-11.2-30.4-28.8-30.4m-451.2-80c33.6-28.8 54.4-72 54.4-121.6 0-86.4-68.8-158.4-152-158.4-84.8 0-152 70.4-152 158.4 0 49.6 20.8 92.8 54.4 121.6-59.2 28.8-105.6 81.6-126.4 150.4-4.8 16 3.2 33.6 19.2 38.4 16 4.8 32-3.2 36.8-20.8 22.4-76.8 91.2-129.6 168-129.6s145.6 52.8 168 129.6c3.2 12.8 16 20.8 28.8 20.8 3.2 0 6.4 0 8-1.6 16-4.8 24-22.4 19.2-38.4-20.8-67.2-67.2-121.6-126.4-148.8m-97.6-25.6c-51.2 0-94.4-43.2-94.4-97.6 0-54.4 41.6-97.6 94.4-97.6 51.2 0 94.4 43.2 94.4 97.6-1.6 54.4-43.2 97.6-94.4 97.6"/></svg>