<svg class="icon" viewBox="0 0 1024 1024" xmlns="http://www.w3.org/2000/svg" width="200" height="200"><path d="M730.08 80H323.04a72 72 0 0 0-72 72v270h54V188a54 54 0 0 1 54-54H656v225.04h207.04V836a54 54 0 0 1-54 54h-450a54 54 0 0 1-54-54v-18h-54v54a72 72 0 0 0 72 72h522a72 72 0 0 0 72-72V320.48c0-25.6 0-25.6-186.96-240.48zM710 304.96V138.32l140 166.64z"/><path d="M754.96 494h-648v288h648zm-488.8 244.64l-29.28-52.88-29.84 52.88h-44.4l48.96-77.6-46.72-66.96h50.08l27.52 46.72 28.72-46.72h43.84L268.4 664.4l48 74.24zm115.28 0h-43.28V531.12h43.28zm90.56 3.68q-62.16-1.36-64-45.28h40.56c1.12 11.04 8.96 16.88 24 17.44 13.12 0 19.84-5.84 20.24-16 0-8-10-14.16-29.2-18q-56-9.6-53.44-46.72 2.88-38.88 62.4-43.28 55.28.64 57.92 42.72h-39.36c-1.04-8.8-7.36-13.44-19.12-14s-17.84 4-17.44 12.88c1.68 8 11.04 13.28 28 16q45.36 3.84 54.72 48-3.84 40.88-65.28 46.24zm177.76-3.68l-29.28-52.88-29.76 52.88h-44.48l48.96-77.6-46.72-66.96h50.08l27.6 46.72 28.64-46.72h43.92L652 664.4l48 74.24z"/></svg>